<svg version="1.1" id="Layer_1" xmlns="http://www.w3.org/2000/svg" xmlns:xlink="http://www.w3.org/1999/xlink" x="0px" y="0px"
	 width="100%" viewBox="0 0 752 800" enable-background="new 0 0 752 800" xml:space="preserve">
<path fill="#000000" opacity="1.000000" stroke="none" 
	d="
M267.999878,716.367065 
	C222.838470,716.365173 178.177063,716.366333 133.515656,716.357300 
	C126.716469,716.355957 126.704163,716.333984 126.703896,709.425720 
	C126.697800,550.444458 126.693909,391.463165 126.693214,232.481873 
	C126.693184,225.670517 126.709259,225.657288 133.584625,225.656464 
	C166.414093,225.652573 199.243561,225.660538 232.073029,225.654297 
	C238.759125,225.653030 239.118729,225.419846 238.958908,218.579163 
	C238.528168,200.141968 240.186966,182.014282 246.396393,164.500580 
	C259.461670,127.649925 283.729706,100.811768 319.790222,85.877762 
	C363.174500,67.910751 405.504700,71.896477 444.504272,97.938751 
	C476.945099,119.601357 496.137329,150.488708 501.502747,189.614487 
	C502.847595,199.421326 502.961426,209.191650 503.052032,219.011948 
	C503.111969,225.509979 503.202362,225.643005 509.873932,225.646774 
	C542.870056,225.665451 575.866760,225.759171 608.861572,225.552750 
	C613.884705,225.521317 615.409241,226.921646 615.405518,232.003464 
	C615.288452,391.484558 615.282532,550.965820 615.429688,710.446899 
	C615.434937,716.140991 612.845215,716.422180 608.457947,716.419373 
	C495.138641,716.346924 381.819275,716.364624 267.999878,716.367065 
M278.040375,284.500305 
	C278.037476,300.663574 277.919861,316.828156 278.102722,332.989319 
	C278.156525,337.744629 276.498932,339.468750 271.691284,339.297394 
	C263.037109,338.988953 254.364075,339.230621 245.699081,339.199158 
	C239.275070,339.175842 238.972992,338.842896 238.976288,332.376373 
	C238.986847,311.713501 238.881516,291.049347 239.103241,270.388702 
	C239.154617,265.601105 237.640945,264.058136 232.826675,264.110474 
	C212.499405,264.331512 192.168320,264.201355 171.838638,264.203949 
	C165.324127,264.204773 165.309723,264.210815 165.309753,270.881165 
	C165.310562,404.357269 165.314362,537.833374 165.320312,671.309448 
	C165.320602,677.800720 165.332352,677.825500 172.033707,677.825806 
	C304.676636,677.832825 437.319550,677.834839 569.962463,677.832092 
	C576.680054,677.831970 576.704468,677.807617 576.704468,671.303223 
	C576.705688,537.660461 576.678467,404.017731 576.789001,270.375092 
	C576.792908,265.640106 575.554565,264.042694 570.661255,264.101685 
	C550.334473,264.346802 530.003113,264.203247 509.673431,264.203857 
	C503.054901,264.204071 503.032043,264.217285 503.029572,270.890320 
	C503.021912,291.553192 502.926147,312.216919 503.097015,332.878357 
	C503.135712,337.555847 501.710815,339.471375 496.812592,339.303314 
	C487.991119,339.000610 479.151947,339.234863 470.320282,339.204193 
	C464.141937,339.182739 464.026550,339.040863 464.023926,332.602234 
	C464.015472,311.939301 463.874847,291.274780 464.110046,270.614563 
	C464.167664,265.554535 462.569641,264.072052 457.534729,264.111389 
	C429.874725,264.327362 402.212128,264.206726 374.550415,264.207245 
	C344.389160,264.207794 314.227478,264.291931 284.067078,264.133850 
	C279.598236,264.110413 277.633179,265.292236 277.970917,270.008026 
	C278.291504,274.484253 278.039856,279.001434 278.040375,284.500305 
M278.068115,204.607224 
	C278.052277,208.772568 278.031097,212.937881 278.021698,217.103241 
	C278.002411,225.631470 278.005005,225.648239 286.307983,225.650467 
	C322.964325,225.660248 359.620667,225.661209 396.277008,225.661987 
	C416.937866,225.662430 437.598724,225.640686 458.259521,225.670181 
	C461.307983,225.674530 463.899628,225.602417 463.984009,221.405212 
	C464.306458,205.365402 463.675476,189.581726 457.895416,174.222443 
	C441.044067,129.443375 391.422272,104.008842 344.326447,118.283386 
	C305.794373,129.962296 279.110901,164.632538 278.068115,204.607224 
z"/>
</svg>